<svg width="25" height="24" viewBox="0 0 25 24" fill="none" xmlns="http://www.w3.org/2000/svg">
<g id="SVG">
<path id="Vector" d="M12.3899 2C6.86989 2 2.38989 6.48 2.38989 12C2.38989 17.52 6.86989 22 12.3899 22C17.9099 22 22.3899 17.52 22.3899 12C22.3899 6.48 17.9099 2 12.3899 2ZM12.3899 3C17.3499 3 21.3899 7.04 21.3899 12C21.3899 13.42 21.0499 14.76 20.4599 15.96C18.9299 14.24 16.4799 13.07 13.0799 12.93C14.0056 12.7687 14.8449 12.2863 15.4503 11.5675C16.0556 10.8488 16.3883 9.9397 16.3899 9C16.3899 6.79 14.5999 5 12.3899 5C10.1799 5 8.38989 6.79 8.38989 9C8.38989 10.97 9.81989 12.6 11.6999 12.93C8.29989 13.07 5.84989 14.24 4.31989 15.96C3.72989 14.76 3.38989 13.42 3.38989 12C3.38989 7.04 7.42989 3 12.3899 3ZM9.38989 9C9.38989 7.35 10.7399 6 12.3899 6C14.0399 6 15.3899 7.35 15.3899 9C15.3899 10.65 14.0399 12 12.3899 12C10.7399 12 9.38989 10.65 9.38989 9ZM12.3899 21C9.22989 21 6.44989 19.36 4.83989 16.88C6.39989 14.93 8.99989 13.9 12.3899 13.9C15.7799 13.9 18.3799 14.93 19.9399 16.88C18.3299 19.36 15.5499 21 12.3899 21Z" fill="#065FD4"/>
</g>
</svg>
