<svg width="25" height="24" viewBox="0 0 25 24" fill="none" xmlns="http://www.w3.org/2000/svg">
<g id="SVG">
<path id="Vector" d="M10.3901 14.65V9.35001L15.3901 12L10.3901 14.65ZM18.1601 10.32L16.9601 9.82001L18.3901 9.06001C20.2301 8.10001 20.9201 5.83001 19.9501 4.00001C18.9801 2.17001 16.7101 1.47001 14.8801 2.44001L6.39009 6.94001C5.10009 7.62001 4.32009 8.98001 4.39009 10.43C4.46009 11.85 5.32009 13.1 6.61009 13.68C6.64009 13.69 7.81009 14.18 7.81009 14.18L6.39009 14.93C4.56009 15.9 3.86009 18.17 4.83009 20C5.80009 21.83 8.07009 22.53 9.90009 21.56L18.4001 17.06C19.6901 16.38 20.4601 15.02 20.3901 13.57C20.3201 12.15 19.4501 10.89 18.1601 10.32ZM17.9301 16.18L9.43009 20.68C8.09009 21.39 6.42009 20.88 5.71009 19.54C5.00009 18.2 5.51009 16.53 6.85009 15.82L8.89009 14.74V13.53L8.20009 13.25L7.09009 12.79C6.10009 12.38 5.44009 11.44 5.39009 10.38C5.34009 9.32001 5.91009 8.32001 6.85009 7.82001L15.3501 3.32001C16.6901 2.61001 18.3601 3.12001 19.0701 4.46001C19.7801 5.80001 19.2701 7.47001 17.9301 8.18001L15.8901 9.26001V10.47L17.6901 11.21C18.6801 11.62 19.3401 12.56 19.3901 13.62C19.4401 14.68 18.8701 15.68 17.9301 16.18Z" fill="#030303"/>
</g>
</svg>
