<svg width="20" height="19" viewBox="0 0 20 19" fill="none" xmlns="http://www.w3.org/2000/svg">
<path fill-rule="evenodd" clip-rule="evenodd" d="M17.1308 6.74296C17.7584 6.74296 18.3448 7.05519 18.6951 7.57584C19.2713 8.43204 19.2657 9.55344 18.681 10.4039L18.1347 11.1984L18.641 12.3725C18.9428 13.0723 18.8698 13.8773 18.447 14.5115L17.6249 15.7447V17.243C17.6249 18.0714 16.9533 18.743 16.1249 18.743L6.74992 18.7429C5.92147 18.7429 5.2499 18.0713 5.2499 17.2429V7.36449C5.2499 6.73921 5.4453 6.12961 5.80867 5.62081L9.6474 0.246583C9.8082 0.0214552 10.1041 -0.0613297 10.3584 0.0476528C11.6821 0.614983 12.401 2.05685 12.0574 3.45549L11.2499 6.74289L17.1308 6.74296ZM1.5 7.86961C0.671572 7.86961 0 8.54124 0 9.36961V17.2446C0 18.0731 0.671572 18.7446 1.5 18.7446H3.75V7.86961H1.5Z" fill="white"/>
</svg>
