<svg width="24" height="24" viewBox="0 0 24 24" fill="none" xmlns="http://www.w3.org/2000/svg">
<path fill-rule="evenodd" clip-rule="evenodd" d="M4.125 2.25C3.08947 2.25 2.25 3.08947 2.25 4.125V16.125C2.25 17.1605 3.08947 18 4.125 18H16.875L20.0606 21.4306C20.6635 22.0799 21.75 21.6533 21.75 20.7671V18V4.125C21.75 3.08947 20.9105 2.25 19.875 2.25H4.125ZM6 7.875C6 7.25368 6.50368 6.75 7.125 6.75H16.875C17.4963 6.75 18 7.25368 18 7.875C18 8.4963 17.4963 9 16.875 9H7.125C6.50368 9 6 8.4963 6 7.875ZM6 12.375C6 11.7537 6.50368 11.25 7.125 11.25H13.875C14.4963 11.25 15 11.7537 15 12.375C15 12.9963 14.4963 13.5 13.875 13.5H7.125C6.50368 13.5 6 12.9963 6 12.375Z" fill="white"/>
</svg>
