<svg width="24" height="24" viewBox="0 0 24 24" fill="none" xmlns="http://www.w3.org/2000/svg">
<path fill-rule="evenodd" clip-rule="evenodd" d="M4.61922 15.0017C3.99166 15.0017 3.40524 14.6895 3.05488 14.1689C2.4787 13.3127 2.48431 12.1913 3.06904 11.3408L3.61534 10.5463L3.10904 9.37223C2.80723 8.6724 2.88024 7.86735 3.303 7.23318L4.1251 6.00003V4.50173C4.1251 3.67331 4.79668 3.00173 5.62511 3.00174L15.0001 3.00179C15.8285 3.0018 16.5001 3.67337 16.5001 4.5018V14.3802C16.5001 15.0055 16.3047 15.6151 15.9413 16.1239L12.1026 21.4981C11.9418 21.7232 11.6459 21.806 11.3916 21.6971C10.0679 21.1297 9.34898 19.6878 9.69255 18.2892L10.5001 15.0018L4.61922 15.0017ZM20.25 13.8751C21.0785 13.8751 21.75 13.2035 21.75 12.3751V4.50005C21.75 3.67162 21.0785 3.00005 20.25 3.00005H18V13.8751H20.25Z" fill="white"/>
</svg>
